<svg xmlns="http://www.w3.org/2000/svg" width="560" height="308">
<path fill="#f16850" d="M426 200l-62.5 13.4 6.3 62.2-58.5-25-32.3 53.8-32.3-54-58.5 25.2 6.3-62.2L132 200l42.6-46.6-42.6-46.6 62.5-13.3-6.3-62.2 58.6 25.2 32.2-54 32.3 54 58.6-25-6.8 62 62.5 13.3-42.7 46.7 43 46.5"/>
<path fill="#fd694f" d="M279 96.7l-32.3-40.2-58.5-25.2 35 46L279 96.7"/>
<path fill="#ff3413" d="M194.5 93.5L132 106.8l42.6 46.6 50-18-30-42"/>
<path fill="#dc1d23" d="M223 77.3l-34.8-46 6.3 62.2 30.2 41.8-1.6-58"/>
<path fill="#ff9281" d="M311.3 56.5L279 2.5l-32.3 54L279 96.7l32.3-40.2"/>
<path fill="#ff8b79" d="M383.4 153.5l42.6-46.7-62.5-13.3-30.2 41.8 50 18.2"/>
<path fill="#fd694f" d="M333.3 135.3l30.2-41.8 6.4-62.2-35 46-2 58"/>
<path fill="#ef5240" d="M335 77.3l35-46-58.7 25.2L279 96.7l56-19.4"/>
<path fill="#ff482c" d="M369.5 181.3L426 200l-42.6-46.5-50-18.2 36 46"/>
<path fill="#ec2101" d="M224.7 135.3l-50 18L132 200l56.5-18.6 36.2-46"/>
<path fill="#d21c22" d="M279 245.5v59l32.3-54 1.3-52.8-33.6 47.8"/>
<path fill="#c90901" d="M369.5 181.3l-57 16.4 51 15.7L426 200l-56.5-18.7"/>
<path fill="#ec2101" d="M311.3 250.4l58.5 25.2-6.3-62.2-51-15.7-1.2 52.7"/>
<path fill="#b6171e" d="M188.5 181.3L132 200l62.5 13.4 51-15.7-57-16.4"/>
<path fill="#b4151b" d="M245.4 197.7l1.3 52.7 32.3 54v-59l-33.6-47.7"/>
<path fill="#d21c22" d="M194.5 213.4l-6.3 62.2 58.5-25.2-1.3-52.7-51 15.7"/>
<path fill="#e63320" d="M333.3 135.3l1.6-58-56 19.4v56.5l54-18"/>
<path fill="#ff4527" d="M279 96.7l-56-19.4 1.7 58 54.3 18V96.6"/>
<path fill="#ff9281" d="M245.4 197.7l33.6 47.8 33.6-47.8-33.6-44.5-33.6 44.5"/>
<path fill="#fd684d" d="M279 153.2l33.6 44.5 57-16.4-36.3-46-54.3 18"/>
<path fill="#fd745c" d="M224.7 135.3l-36.2 46 57 16.4 33.5-44.5-54.3-18"/>
<path fill="#fff" d="M277 152h14v14h-14zm-4 0v14h-24v17l-25-24 25-24v17h24"/>
<path fill="#fff" d="M273 145h-14v-14h14zm4 0v-14h24v-17l25 24-25 24v-17h-24"/>
</svg>